<svg width="500" height="800" viewBox="0 0 500 800" fill="none" xmlns="http://www.w3.org/2000/svg">
<path d="M365.397 116.567L365.324 116.489C365.324 115.89 361.668 108.124 353.455 99.686C345.314 91.2485 332.621 82.066 314.481 78.4833C302.611 76.0926 291.263 76.9885 281.7 79.0041C275.502 74.3739 255.023 65.4681 217.861 66.0249C162.419 66.8583 138.523 105.848 133.856 116.566C126.387 123.587 55.3452 290.686 67.3665 381.406C79.1635 470.037 161.315 507.218 192.372 521.26L195.924 522.603C215.2 531.338 223.455 566.358 223.455 578.525V617.426C223.455 630.567 216.21 642.738 205.236 649.905L142.143 691.566C131.841 698.29 126.388 709.717 126.388 722.035V728.978C126.388 733.082 127.581 733.983 131.763 733.983H366.216C370.32 733.983 372.789 733.087 372.789 728.978V722.035C372.789 709.718 367.039 698.29 356.737 691.571L293.196 649.91C282.222 642.738 275.723 630.571 275.723 617.431L275.795 579.051C276.764 566.359 283.561 531.338 302.826 522.603L305.889 521.26C336.951 507.224 419.457 470.041 431.253 381.406C443.273 290.682 368.607 123.58 365.397 116.567ZM393.996 376.473C391.756 393.276 385.709 409.025 376.075 423.364C374.658 425.531 372.267 426.65 369.877 426.65C368.46 426.65 366.965 426.203 365.694 425.38C362.262 423.067 361.366 418.437 363.679 414.999C372.043 402.604 377.267 389.015 379.209 374.458C382.194 352.057 377.866 318.833 366.517 275.895C365.47 271.937 367.861 267.833 371.819 266.786C375.777 265.739 379.881 268.057 380.928 272.088C392.876 316.963 397.204 352.057 393.996 376.473ZM352.777 206.753C356.657 205.41 360.918 207.498 362.262 211.384C366.22 222.733 369.876 233.93 373.163 244.686C374.355 248.645 372.116 252.827 368.157 254.02C367.413 254.244 366.741 254.395 365.991 254.395C362.783 254.395 359.793 252.306 358.824 249.093C355.616 238.488 352.027 227.442 348.147 216.311C346.803 212.353 348.897 208.17 352.777 206.753ZM219.944 80.6388C239.804 79.519 253.543 82.3576 262.132 85.7898C258.325 87.4305 256.007 88.4773 255.637 88.7013C252.054 90.7169 250.856 95.1232 252.877 98.7065C254.892 102.29 259.523 103.488 263.033 101.467C263.257 101.316 286.85 89.2221 311.642 94.1492C327.689 97.3628 338.293 106.774 344.564 114.237H152.444C161.553 99.3052 181.564 82.7265 219.938 80.6385L219.944 80.6388ZM144.157 129.169H353.824C357.11 136.638 364.277 151.716 372.715 173.972H125.195C133.632 151.721 140.797 136.639 144.157 129.169ZM260.788 578.516V617.417C260.788 635.636 269.97 652.439 285.132 662.365L348.971 702.835C354.872 706.72 357.012 711.574 357.236 719.043H140.703C140.854 711.574 142.963 706.725 148.937 702.84L213.411 661.772C228.645 651.84 238.384 635.34 238.384 617.121V577.772C238.384 576.131 235.212 546.824 221.848 526.064C223.265 526.814 240.4 539.84 276.765 524.908H276.838C263.25 547.309 260.786 576.429 260.786 578.517L260.788 578.516Z" fill="black"/>
</svg>
