<svg width="500" height="800" viewBox="0 0 500 800" fill="none" xmlns="http://www.w3.org/2000/svg">
<path d="M325.021 702.805C304.234 687.201 272.824 663.617 272.824 622.805C272.824 609.545 274.454 563.237 295.402 524.18C300.152 515.342 307.881 505.649 316.824 494.425C343.964 460.395 381.126 413.78 381.126 334.172C381.126 268 339.298 117.999 335.902 105.932C335.902 105.932 335.486 103.812 334.887 102.833C314.356 69.6452 273.564 75.2972 261.095 77.9479C254.704 73.6561 239.068 65 217.068 65C184.303 65 166.339 84.2133 163.24 105.875C160.016 117.359 118 268.168 118 334.488C118 414.165 155.208 460.993 182.369 495.195C191.286 506.424 199 516.121 203.724 524.935C224.677 563.976 226.297 609.763 226.297 622.867C226.297 663.684 194.891 687.231 174.104 702.815C161.51 712.263 153.187 718.497 153.187 727.044C153.187 731.174 156.525 734.513 160.655 734.513L338.469 734.508C342.599 734.508 345.938 731.169 345.938 727.039C345.938 718.482 337.62 712.247 325.026 702.799L325.021 702.805ZM349.62 332.472C352.344 361.399 342.536 383.852 338.198 392.16C336.859 394.712 334.26 396.171 331.567 396.171C330.401 396.171 329.224 395.9 328.12 395.327C324.463 393.415 323.052 388.905 324.953 385.249C328.687 378.108 337.099 358.822 334.755 333.869C334.364 329.765 337.385 326.119 341.484 325.728C345.687 325.343 349.25 328.368 349.62 332.472ZM346.89 300.732C347.375 304.826 344.463 308.545 340.364 309.034C340.068 309.071 339.765 309.086 339.469 309.086C335.745 309.086 332.516 306.3 332.062 302.508C328.375 271.82 322.661 239.306 316.412 213.295C315.448 209.284 317.922 205.258 321.927 204.29C325.922 203.357 329.969 205.79 330.932 209.805C337.307 236.347 343.124 269.493 346.89 300.732ZM217.068 79.9321C240.041 79.9321 254.578 91.63 254.698 91.7291C256.594 93.3124 259.146 93.8697 261.521 93.1875C261.886 93.0989 291.865 84.9583 312.1 99.8489L180.412 99.8437C185.855 86.9844 198.494 79.9321 217.068 79.9321ZM164.505 159.577C169.677 139.047 174.068 122.791 176.271 114.775H322.857C325.06 122.785 329.456 139.04 334.649 159.577H164.505ZM322.425 719.577H176.705C178.788 717.958 181.007 716.302 183.059 714.755C204.809 698.448 241.226 671.151 241.226 622.864C241.226 606.088 239.143 564.629 220.857 525.807C219.857 523.687 222.216 521.64 224.268 522.77C232.101 527.093 240.399 529.385 248.877 529.385C257.929 529.385 266.773 526.833 275.071 521.958C277.118 520.754 279.477 522.801 278.513 524.973C271.638 540.504 257.883 577.285 257.883 622.807C257.877 676.208 302.44 703.979 322.419 719.577L322.425 719.577Z" fill="black"/>
</svg>
