<svg width="500" height="800" viewBox="0 0 500 800" fill="none" xmlns="http://www.w3.org/2000/svg">
<path d="M356.186 105.933C350.212 97.6462 340.951 95.3285 335.879 94.6566C330.874 89.8754 318.108 79.5006 299.739 79.5006C291.301 79.5006 283.911 81.1413 277.488 83.459C269.796 72.183 253.895 58.371 230.524 61.4323C204.691 64.8646 193.264 84.0577 188.56 92.5683C188.263 92.4954 187.961 92.4173 187.664 92.3444C181.987 90.8496 172.358 88.386 162.128 91.2246C138.087 97.9434 136.368 123.631 138.831 136.621L200.284 670.634L154.311 704.831C149.004 708.191 146.301 714.014 146.301 720.285V731.785C146.301 735.967 148.728 738.358 152.832 738.358H348.952C353.056 738.358 355.363 735.967 355.363 731.785V720.285C355.363 714.014 353.947 708.191 348.645 704.826L296.451 670.779L358.274 137.059C362.31 124.148 361.784 113.695 356.185 105.929L356.186 105.933ZM274.426 349.866C273.082 349.866 271.738 349.491 270.545 348.819C267.035 346.652 265.915 342.1 268.009 338.59L295.634 292.371C297.723 288.788 302.353 287.668 305.863 289.757C309.447 291.923 310.567 296.475 308.478 299.986L280.853 346.205C279.431 348.6 276.967 349.866 274.426 349.866ZM318.254 231.445L280.847 293.939C279.43 296.33 276.967 297.596 274.425 297.596C273.081 297.596 271.738 297.221 270.545 296.549C267.034 294.382 265.915 289.83 268.008 286.319L305.415 223.746C307.504 220.236 312.134 219.043 315.644 221.21C319.15 223.309 320.347 227.861 318.254 231.445ZM340.431 163.423H156.978L154.587 141.022H342.974C342.974 141.027 340.509 163.423 340.431 163.423ZM345.66 126.09H152.94C152.716 118.621 154.284 107.939 166.154 104.579C172.503 102.788 178.846 104.944 183.924 106.288C188.93 107.558 194.081 109.11 198.039 105.225C199.159 104.032 199.982 102.73 201.102 100.564C204.982 93.4698 213.049 78.6369 232.534 76.0942C248.888 73.9276 259.039 83.3754 263.966 90.0209C254.929 95.8438 250.002 101.901 249.627 102.422C247.091 105.63 247.684 109.896 250.971 112.432C254.179 114.896 258.887 113.5 261.424 110.292C261.799 109.771 278.2 92.485 298.736 93.1037C317.09 93.6558 326.757 106.598 326.834 106.672C328.251 108.312 330.345 109.286 332.433 109.359C332.506 109.359 340.647 108.536 344.303 113.687C346.772 117.203 346.621 126.088 345.652 126.088L345.66 126.09Z" fill="black"/>
</svg>
