<svg width="500" height="800" viewBox="0 0 500 800" fill="none" xmlns="http://www.w3.org/2000/svg">
<path d="M312.779 510.661C314.039 482.645 325.888 439.265 338.435 393.354C354.419 334.87 372.518 268.573 372.518 219.141C372.518 179.553 365.893 141.078 354.346 113.583C353.179 110.813 350.465 109.005 347.46 109.005L151.073 109C148.063 109 145.344 110.807 144.188 113.578C132.631 141.083 126 179.551 126 219.135C126 268.562 144.115 334.854 160.079 393.335C172.631 439.262 184.48 482.642 185.74 510.669C188.068 562.169 177.407 586.622 168.005 608.199C161.276 623.611 154.932 638.183 154.932 659.205C154.932 676.267 168.812 690.153 185.88 690.153H312.626C329.694 690.153 343.584 676.273 343.584 659.205C343.584 638.178 337.23 623.611 330.517 608.194C321.116 586.61 310.459 562.153 312.782 510.663L312.779 510.661ZM200.659 509.989C199.32 480.301 187.258 436.145 174.487 389.395C158.763 331.822 140.93 266.551 140.93 219.129C140.93 183.639 146.435 149.306 156.112 123.931H342.406C352.083 149.301 357.578 183.634 357.578 219.129C357.578 266.555 339.75 331.831 324.02 389.409C311.255 436.158 299.192 480.31 297.848 509.982C295.525 561.471 305.817 588.665 314.984 609.93C271.776 619.019 226.73 619.019 183.52 609.93C192.692 588.665 202.99 561.471 200.66 509.977L200.659 509.989ZM312.623 675.202H185.883C177.05 675.202 169.867 668.02 169.867 659.186C169.867 645.379 173.138 634.749 177.534 623.931C201.07 629.098 225.143 631.817 249.252 631.817C273.362 631.817 297.435 629.109 320.976 623.931C325.372 634.744 328.638 645.374 328.638 659.186C328.648 668.019 321.462 675.202 312.623 675.202Z" fill="black"/>
</svg>
