<svg width="500" height="800" viewBox="0 0 500 800" fill="none" xmlns="http://www.w3.org/2000/svg">
<path d="M284.703 560.087L299.266 546.202C304.943 540.301 309.271 532.614 309.271 524.472V524.321C391.407 499.529 439.042 422.477 439.042 347.508C439.042 282.773 418.959 236.029 403.203 198.468C395.141 179.203 387.896 162.551 385.656 147.995C379.459 107.151 396.781 75.4159 397.005 75.1199C398.276 72.8073 398.198 69.9688 396.854 67.7292C395.505 65.4167 392.969 64 390.354 64H108.714C106.1 64 103.636 65.4167 102.292 67.7344C100.949 69.974 100.949 72.8125 102.219 75.1251C102.371 75.4219 119.839 107.156 113.641 148C111.402 162.562 104.459 179.208 96.3907 198.473C80.636 236.03 61 282.77 61 347.513C61 423.524 109.651 501.446 194.547 525.193C195.833 532.74 198.458 540.532 203.833 546.204L216.078 560.089C219.14 563.297 219.661 567.48 219.661 571.886V654.022C219.661 660.069 217.573 665.595 212.343 668.506C206.442 671.865 199.5 675.751 191.437 680.006C140.963 706.511 124.463 717.266 124.463 728.537C124.463 732.641 128.047 736.005 132.229 736.005H370.189C374.371 736.005 377.658 732.646 377.658 728.537C377.658 717.261 360.855 706.51 310.461 680.006C302.32 675.751 294.258 671.865 288.434 668.506C283.205 665.595 279.397 660.069 279.397 654.022V571.886C279.397 567.485 281.637 563.303 284.7 560.089L284.703 560.087ZM376.542 427.556C375.125 429.796 372.735 431.067 370.271 431.067C368.854 431.067 367.511 430.692 366.24 429.874C362.729 427.707 361.761 423.077 363.927 419.572C377.813 397.697 385.802 371.41 385.802 347.52C385.802 326.014 383.187 305.332 377.885 284.353C376.917 280.395 379.302 276.364 383.338 275.317C387.37 274.348 391.401 276.733 392.375 280.77C397.974 302.947 400.739 324.748 400.739 347.519C400.734 374.17 391.921 403.364 376.542 427.556ZM356.083 453.166C343.167 466.155 328.083 476.311 311.281 483.406C310.385 483.781 309.338 484.005 308.369 484.005C305.458 484.005 302.692 482.286 301.499 479.452C299.932 475.645 301.723 471.239 305.531 469.671C320.463 463.322 333.979 454.213 345.552 442.641C348.463 439.729 353.166 439.729 356.078 442.641C358.995 445.552 358.995 450.254 356.083 453.166ZM120.363 78.9389H378.71C373.257 92.9749 365.944 119.032 370.647 150.246C371.991 158.98 374.751 168.09 378.262 177.647C350.262 172.496 322.559 183.772 309.497 189.069C308.528 189.444 307.481 189.892 306.512 190.261C306.288 189.814 305.991 189.366 305.689 188.991C301.585 182.793 293.819 171.22 277.168 168.605C261.933 166.215 249.017 173.085 242.299 177.715C234.46 172.637 218.105 164.501 194.585 166.142C166.96 168.157 151.429 180.402 144.184 188.24C135.897 183.089 126.564 180.996 119.919 180.178C123.877 169.652 126.939 159.719 128.429 150.235C133.132 119.038 125.814 92.9752 120.361 78.9379L120.363 78.9389ZM110.134 204.231C111.551 200.945 112.821 197.809 114.165 194.674C119.842 194.97 132.384 196.616 140.597 204.08C142.092 205.497 144.701 206.543 146.722 206.247C148.889 206.023 150.977 204.231 152.097 202.288C152.545 201.543 163.67 183.397 195.628 181.085C221.836 179.143 236.768 192.138 237.368 192.658C240.206 195.273 244.686 195.273 247.524 192.585C247.675 192.434 260.29 181.085 274.852 183.403C285.081 184.971 289.639 191.768 293.295 197.289C296.055 201.393 299.118 206.023 304.868 206.023C307.331 206.023 309.795 205.054 315.097 202.887C329.509 197.065 358.925 185.19 385.061 194.971C386.332 198.033 387.597 201.096 388.941 204.231C393.946 216.179 399.321 229.095 404.321 243.205H94.7478C99.7478 229.095 105.128 216.178 110.128 204.231L110.134 204.231ZM281.121 681.578C287.095 684.937 294.933 688.895 303.219 693.223C317.105 700.541 339.73 712.338 352.798 721.073L149.558 721.078C162.626 712.344 185.027 700.547 198.913 693.229C207.199 688.901 213.699 684.942 219.595 681.583C229.601 675.984 234.606 665.452 234.606 654.031V571.895C234.606 563.608 232.59 555.764 226.84 549.796C226.84 549.796 217.002 539.546 214.075 535.832C212.471 533.801 211.679 531.957 211.273 529.113C223.517 531.504 235.799 532.624 249.393 532.624C264.253 532.624 278.439 531.129 291.805 528.369C291.133 531.129 289.789 533.743 287.773 535.837L273.888 549.801C268.138 555.775 264.482 563.613 264.482 571.9V654.036C264.477 665.447 271.195 675.979 281.127 681.577L281.121 681.578Z" fill="black"/>
</svg>
