<svg width="500" height="800" viewBox="0 0 500 800" fill="none" xmlns="http://www.w3.org/2000/svg">
<path d="M489.467 461.757L467.931 308.624C464.421 283.212 442.317 264.217 417.702 264.217H371.983C366.525 264.217 359.14 257.858 359.14 252.405V205.623C366.608 194.842 376.655 154.686 345.952 125.306C325.077 105.342 297.827 109.738 285.873 112.947C276.972 99.3066 249.467 63.5719 199.983 64.0039C171.999 64.1237 147.076 75.6498 129.633 96.5306C120.435 107.546 114.237 120.557 111.133 134.083C99.9251 127.885 78.0347 120.061 52.94 134.03C30.6374 146.442 20.148 172.276 28.6894 195.452C31.2258 202.322 38.0696 206.79 38.0696 209.749V547.309C38.0696 579.101 34.1322 612.336 26.028 643.055L9.27869 697.487C3.53909 716.289 17.8568 734.617 37.5294 734.617H362.943C382.536 734.617 396.604 716.363 390.86 697.555L374.068 642.705C369.974 627.273 367.11 611.367 365.094 595.148C364.735 591.632 366.959 588.413 370.401 587.554L425.453 573.747L426.313 573.477C472.823 555.539 498.729 509.414 489.469 461.758L489.467 461.757ZM59.9472 146.57C84.2912 133.024 104.718 146.445 109.005 149.623C108.76 155.456 109.072 161.284 110.077 167.003C110.765 170.898 114.473 173.32 118.39 172.654C122.296 171.966 124.9 167.904 124.208 163.997C120.645 143.8 126.827 122.044 140.754 105.377C155.432 87.8147 176.557 77.5547 200.233 77.5547H200.613C251.201 77.5547 275.676 122.549 276.692 124.44C278.4 127.648 282.249 129.95 285.65 128.622C285.958 128.508 316.686 116.633 336.776 135.851C365.948 163.753 347.125 201.715 346.906 202.075C346.495 202.747 345.864 204.487 345.146 204.487H227.864C228.515 204.487 226.354 197.586 222.698 196.654C218.963 195.581 214.948 197.898 213.937 201.773C213.937 201.846 213.578 202.976 212.927 204.841C209.192 215.174 194.192 249.221 157.093 253.882C153.859 254.242 150.776 254.471 147.833 254.471C104.338 254.471 88.349 215.799 84.973 206.326C84.7699 205.82 83.1501 201.388 82.5772 200.32C80.6865 196.836 76.3115 195.539 72.8479 197.425C69.6969 199.128 59.0146 203.326 51.4053 200.472C47.4678 198.987 44.6189 195.716 42.6865 190.466C36.5094 173.721 43.6091 155.664 59.9472 146.57ZM314.347 488.104C310.181 488.104 306.878 484.729 306.878 480.635V297.395C306.878 293.228 310.181 289.926 314.347 289.926C318.514 289.926 321.816 293.228 321.816 297.395V480.635C321.816 484.729 318.514 488.104 314.347 488.104ZM321.816 518.104V570.708C321.816 574.874 318.514 578.244 314.347 578.244C310.181 578.244 306.878 574.869 306.878 570.708V518.104C306.878 513.937 310.181 510.567 314.347 510.567C318.514 510.573 321.816 513.948 321.816 518.104ZM277.013 380.664V608.25C277.013 612.412 273.711 615.787 269.545 615.787C265.378 615.787 262.076 612.412 262.076 608.25V380.664C262.076 376.497 265.378 373.195 269.545 373.195C273.716 373.195 277.013 376.502 277.013 380.664ZM331.008 657.557C288.951 670.333 244.877 676.792 200.029 676.792C155.175 676.792 111.108 670.333 69.0507 657.63C65.1028 656.412 62.8736 652.177 64.0247 648.229C65.2435 644.282 69.4831 641.99 73.4258 643.203C114.046 655.547 156.68 661.797 200.03 661.797C243.379 661.797 286.008 655.557 326.634 643.203C330.649 641.985 334.816 644.276 336.035 648.229C337.248 652.177 334.956 656.344 331.008 657.557ZM413.544 534.046L413.403 533.974L369.231 543.948C364.851 544.953 359.148 541.656 359.148 537.13V315.29C359.148 309.831 366.534 309.035 371.992 309.035H417.711C426.252 309.035 426.825 310.873 426.971 312.165L448.788 469.365C454.377 496.709 439.596 523.068 413.543 534.053L413.544 534.046Z" fill="black"/>
</svg>
