<svg width="500" height="800" viewBox="0 0 500 800" fill="none" xmlns="http://www.w3.org/2000/svg">
<path d="M374.473 129.189C371.718 101.512 343.593 68.6996 307.228 64.5223C291.993 62.7306 282.306 65.939 275.52 68.2567C271.712 69.6004 268.66 70.4963 265.822 70.4234C264.03 70.3504 261.384 70.1265 258.249 69.7515C241.525 68.0327 210.259 64.7463 178.301 76.9182C138.801 91.7782 125.405 125.153 124.885 126.569C124.734 126.866 124.416 128.209 124.416 128.657C123.968 133.36 114.708 245.136 124.416 308.897C128.223 333.913 136.14 366.241 144.427 400.512C157.567 454.648 171.156 510.648 171.156 546.032C171.156 575.225 167.125 606.663 163.239 637.053C160.328 659.751 157.338 683.272 155.995 705.819C155.547 713.735 158.234 721.053 163.687 726.797C169.135 732.631 176.599 735.615 184.666 735.615H313.317C321.233 735.615 328.921 732.553 334.295 726.803C339.67 721.053 342.436 713.662 341.988 705.672C340.644 683.199 337.582 659.677 334.67 636.907C330.79 606.595 326.754 575.229 326.754 545.964C326.754 510.573 340.342 454.573 353.483 400.444C361.847 366.247 370.114 333.917 373.92 308.903C383.712 245.137 374.847 133.889 374.472 129.183L374.473 129.189ZM183.473 91.6263C212.218 80.7982 241.113 83.4127 256.572 84.9804C260.228 85.4283 263.145 85.5013 265.16 85.5794C270.759 85.6523 275.389 84.0117 279.947 82.5169C286.218 80.3502 292.791 78.7825 304.66 80.2043C329.895 83.1158 349.535 100.959 356.551 123.36H144.431C150.775 115.892 162.947 99.391 183.477 91.6257L183.473 91.6263ZM218.301 586.493C217.796 590.243 214.593 592.957 210.91 592.957C210.582 592.957 210.238 592.936 209.9 592.889C205.806 592.337 202.941 588.571 203.499 584.488C206.718 560.728 205.905 527.696 201.52 504.144C200.764 500.092 203.447 496.201 207.499 495.436C211.54 494.665 215.441 497.363 216.207 501.415C220.848 526.363 221.702 561.336 218.301 586.493ZM170.864 183.093C169.161 218 167.759 269.229 172.874 302.681C176.405 325.796 184.03 357.202 192.109 390.446C197.432 412.353 202.874 434.758 207.521 456.212C208.385 460.243 205.828 464.217 201.802 465.092C201.271 465.212 200.734 465.259 200.213 465.259C196.771 465.259 193.682 462.868 192.916 459.373C188.317 438.102 182.89 415.789 177.646 394.212C169.432 360.405 161.728 328.701 158.104 304.93C152.839 270.441 154.198 218.566 155.917 183.092H136.136C136.959 162.633 138.078 145.758 138.75 138.289H359.243C359.915 145.758 361.035 162.633 361.858 183.092L170.864 183.093Z" fill="black"/>
</svg>
